<svg xmlns="http://www.w3.org/2000/svg" version="1.1" xmlns:xlink="http://www.w3.org/1999/xlink" width="512"
     height="512" x="0" y="0" viewBox="0 0 512.001 512.001" style="enable-background:new 0 0 512 512"
     xml:space="preserve"><g><path d="M152.705 372.12h25.24v46.683h-25.24z" style="" fill="#ffbd59" data-original="#5c6670" opacity="1"></path><path
        d="M152.705 418.802h25.24v10.03h-25.24z" style="" fill="#2d3740" data-original="#2d3740"></path><path
        d="M128.928 305.25c0-20.099 16.295-36.392 36.394-36.392 20.1 0 36.392 16.293 36.392 36.392v43.094c0 20.1-16.292 36.392-36.392 36.392-20.099 0-36.394-16.292-36.394-36.392V305.25z"
        style="" fill="#ffecd0" data-original="#c8c9c9" opacity="1"></path><path
        d="M332.755 372.12h25.24v46.683h-25.24z" style="" fill="#ffbd59" data-original="#5c6670"
        opacity="1"></path><path d="M332.755 418.802h25.24v10.03h-25.24z" style="" fill="#2d3740"
                                 data-original="#2d3740"></path><path
        d="M308.985 305.25c0-20.099 16.294-36.392 36.394-36.392s36.392 16.293 36.392 36.392v43.094c0 20.1-16.292 36.392-36.392 36.392s-36.394-16.292-36.394-36.392V305.25z"
        style="" fill="#ffecd0" data-original="#c8c9c9" opacity="1"></path><path
        d="M106.919 372.12h25.239v46.683h-25.239z" style="" fill="#ffdeac" data-original="#7d868c"
        opacity="1"></path><path d="M106.919 418.802h25.239v10.03h-25.239z" style="" fill="#333e48"
                                 data-original="#333e48"></path><path
        d="M83.142 305.25c0-20.099 16.292-36.392 36.392-36.392s36.393 16.293 36.393 36.392v43.094c0 20.1-16.293 36.392-36.393 36.392s-36.392-16.292-36.392-36.392V305.25z"
        style="" fill="#f9f9f9" data-original="#dadbdc" opacity="1"></path><path
        d="M286.969 372.12h25.24v46.683h-25.24z" style="" fill="#ffdeac" data-original="#7d868c"
        opacity="1"></path><path d="M286.969 418.802h25.24v10.03h-25.24z" style="" fill="#333e48"
                                 data-original="#333e48"></path><path
        d="M263.198 305.25c0-20.099 16.294-36.392 36.394-36.392 20.099 0 36.393 16.293 36.393 36.392v43.094c0 20.1-16.294 36.392-36.393 36.392-20.1 0-36.394-16.292-36.394-36.392V305.25z"
        style="" fill="#f9f9f9" data-original="#dadbdc" opacity="1"></path><path
        d="M428.274 255.301c0-9.354-3.968-17.778-10.307-23.695-.954-42.753-23.893-80.077-57.958-101.125.239-1.582.362-3.2.362-4.851 0-17.898-14.511-32.408-32.409-32.408-2.815 0-5.547.362-8.151 1.034-5.936-6.698-14.603-10.923-24.256-10.923-10.306 0-19.483 4.814-25.419 12.313-9.826-9.716-23.33-15.719-38.242-15.719a54.14 54.14 0 0 0-31.857 10.316c-5.916-6.343-14.341-10.316-23.7-10.316-14.529 0-26.824 9.562-30.939 22.736-7.694-4.166-16.503-6.532-25.866-6.532-19.885 0-37.271 10.671-46.758 26.602a19.75 19.75 0 0 0-10.565-3.063c-2.401 0-4.691.447-6.82 1.229-2.85-4.159-7.634-6.893-13.057-6.893a15.783 15.783 0 0 0-12.227 5.783 19.555 19.555 0 0 0-2.122-.118c-10.977 0-19.878 8.901-19.878 19.878s8.9 19.879 19.878 19.879c2.964 0 5.762-.67 8.285-1.839a32.27 32.27 0 0 0-3.645 14.533c-12.026 9.98-19.687 25.035-19.687 41.882 0 14.383 5.593 27.454 14.706 37.181a54.23 54.23 0 0 0-4.29 21.21c0 27.855 20.94 50.805 47.932 54.005 21.444 18.696 49.48 30.021 80.162 30.021h1.135a32.307 32.307 0 0 0 13.136 2.782c4.678 0 9.12-1 13.137-2.782h10.372c10.431 9.73 24.426 15.694 39.817 15.694 15.393 0 29.383-5.964 39.817-15.694h27.097c19.036 0 37.054-4.36 53.11-12.136a54.672 54.672 0 0 0 11.856 1.312c30.044 0 54.4-24.356 54.4-54.401 0-3.205-.294-6.338-.826-9.388 8.331-5.863 13.777-15.548 13.777-26.507z"
        style="" fill="#f9f9f9" data-original="#dadbdc" opacity="1"></path><path
        d="M455.279 114.094c26.85 0 48.615 21.764 48.615 48.616 0 26.846-21.765 48.614-48.615 48.614h-57.564c-26.849 0-48.614-21.768-48.614-48.614 0-26.853 21.765-48.616 48.614-48.616h57.564z"
        style="" fill="#ffbd59" data-original="#5c6670" opacity="1"></path><path
        d="M417.25 88.003a23.095 23.095 0 0 0-16.379 6.786c-5.906-7.951-15.366-13.103-26.032-13.103-17.899 0-32.409 14.51-32.409 32.408 0 .177.012.353.014.529-26.488 3.661-46.889 26.377-46.889 53.87 0 30.045 24.355 54.399 54.399 54.399 4.568 0 8.998-.569 13.235-1.629 3.724 7.811 11.668 13.222 20.895 13.222 12.793 0 23.163-10.372 23.163-23.162 0-7.368-3.451-13.919-8.814-18.16a54.135 54.135 0 0 0 5.921-24.672 54.139 54.139 0 0 0-8.729-29.539 32.542 32.542 0 0 0 7.668-9.337c3.886 2.944 8.71 4.709 13.958 4.709 12.792 0 23.163-10.372 23.163-23.163-.001-12.786-10.372-23.158-23.164-23.158z"
        style="" fill="#f9f9f9" data-original="#dadbdc" opacity="1"></path><path
        d="M455.279 105.987h-7.188c-2.475-14.786-15.362-26.091-30.84-26.091-5.478 0-10.742 1.4-15.383 4.031-7.369-6.578-17.016-10.348-27.028-10.348a40.449 40.449 0 0 0-31.227 14.698 40.359 40.359 0 0 0-21.122-2.789 40.542 40.542 0 0 0-26.935-10.258c-9.586 0-18.658 3.325-25.856 9.316-10.823-8.252-23.982-12.723-37.804-12.723-11.015 0-21.631 2.839-31.059 8.261-7.001-5.307-15.628-8.261-24.498-8.261-14.732 0-27.905 7.804-35.031 20.112a62.764 62.764 0 0 0-21.774-3.907c-19.503 0-37.953 9.276-49.691 24.607a27.803 27.803 0 0 0-11.707-.763 23.903 23.903 0 0 0-15.804-5.967 23.834 23.834 0 0 0-15.488 5.688C11.94 112.188 0 124.501 0 139.549c0 14.368 10.884 26.241 24.84 27.81-.039.302-.073.606-.106.91-12.693 11.818-19.903 28.289-19.903 45.737 0 14.201 4.774 27.806 13.538 38.833a62.231 62.231 0 0 0-3.122 19.558c0 30.804 22.427 56.896 52.571 61.707a130.585 130.585 0 0 0 7.217 5.631v8.61c0 17.055 9.651 31.892 23.773 39.359v44.369a8.104 8.104 0 0 0 8.106 8.106h25.239a8.104 8.104 0 0 0 8.106-8.106v-44.359a42.968 42.968 0 0 0 2.165-1.224c.707.425 1.427.827 2.156 1.211v44.372a8.104 8.104 0 0 0 8.106 8.106h25.253a8.104 8.104 0 0 0 8.106-8.106v-44.338a44.383 44.383 0 0 0 15.466-13.479 66.33 66.33 0 0 0 27.532 5.969c11.615 0 22.732-2.931 32.639-8.55a44.35 44.35 0 0 0 17.18 16.045v44.353a8.104 8.104 0 0 0 8.106 8.106h25.24a8.104 8.104 0 0 0 8.106-8.106v-44.302a45.02 45.02 0 0 0 2.223-1.246 45.26 45.26 0 0 0 2.106 1.18v44.368a8.104 8.104 0 0 0 8.106 8.106h25.245a8.104 8.104 0 0 0 8.106-8.106v-44.369c14.121-7.467 23.773-22.304 23.773-39.359v-1.774c19.926-10.462 33.555-31.349 33.555-55.373 0-1.965-.097-3.954-.292-5.951 8.368-7.631 13.241-18.496 13.241-29.946 0-10.01-3.761-19.71-10.422-27.115a132.115 132.115 0 0 0-.714-8.757h30.034c31.276 0 56.722-25.445 56.722-56.721.003-31.275-25.442-56.721-56.718-56.721zM124.048 423.966h-9.026v-31.352c1.484.151 2.99.228 4.513.228 1.523 0 3.024-.105 4.514-.254l-.001 31.378zm45.787 0h-9.04v-31.365c1.5.154 3.01.242 4.528.242 1.52 0 3.025-.083 4.514-.233v31.356h-.002zm-4.514-47.337c-3.484 0-6.845-.632-9.999-1.824a44.235 44.235 0 0 0 4.67-7.902c1.893.272 3.805.409 5.726.409 5.093 0 10.049-.935 14.757-2.782h5.675c.484.41.982.8 1.476 1.194a28.218 28.218 0 0 1-22.305 10.905zm138.783 47.337h-9.027v-31.373c1.489.15 2.993.251 4.515.251a45.45 45.45 0 0 0 4.513-.231v31.353zm45.787 0h-9.032v-31.365c1.498.154 3.006.242 4.52.242 1.523 0 3.029-.077 4.513-.228v31.35h-.001zm-4.513-47.337c-3.47 0-6.82-.626-9.964-1.81a44.24 44.24 0 0 0 8.089-19.259 130.831 130.831 0 0 0 6.606-2.803c3.591.63 7.218.949 10.815.949 4.256 0 8.415-.43 12.435-1.245-1.998 13.653-13.781 24.168-27.981 24.168zm64.454-101.446a8.104 8.104 0 0 0-3.318 8.018c.468 2.689.705 5.381.705 7.998 0 25.527-20.768 46.294-46.293 46.294a46.7 46.7 0 0 1-10.1-1.12 8.108 8.108 0 0 0-5.291.618 113.152 113.152 0 0 1-12.241 5.058 8.106 8.106 0 0 0-5.446 7.361 28.176 28.176 0 0 1-28.257 27.219 28.223 28.223 0 0 1-26.872-19.453 8.105 8.105 0 0 0-12.702-3.852c-8.923 6.991-19.633 10.687-30.971 10.687-12.766 0-24.943-4.799-34.288-13.515a8.107 8.107 0 0 0-5.529-2.179h-10.372a8.116 8.116 0 0 0-3.289.697 24.306 24.306 0 0 1-18.023.659 8.103 8.103 0 0 0-10.592 5.641c-3.178 12.549-14.453 21.315-27.419 21.315-15.597 0-28.285-12.688-28.285-28.285V335.52a8.105 8.105 0 0 0-3.563-6.713 114.892 114.892 0 0 1-11.072-8.515 8.114 8.114 0 0 0-4.373-1.94c-23.248-2.756-40.78-22.512-40.78-45.955 0-6.264 1.228-12.335 3.647-18.047a8.101 8.101 0 0 0-1.549-8.705c-8.071-8.614-12.515-19.85-12.515-31.638 0-13.816 6.107-26.808 16.757-35.645a8.1 8.1 0 0 0 2.929-6.14 24.029 24.029 0 0 1 2.732-10.893 8.107 8.107 0 0 0-10.6-11.095 11.526 11.526 0 0 1-4.878 1.088c-6.491 0-11.772-5.281-11.772-11.773 0-6.491 5.281-11.772 11.772-11.772.396 0 .814.023 1.242.07a8.13 8.13 0 0 0 7.141-2.911 7.696 7.696 0 0 1 5.964-2.823 7.73 7.73 0 0 1 6.371 3.368 8.108 8.108 0 0 0 9.478 3.03 11.64 11.64 0 0 1 10.274 1.081 8.109 8.109 0 0 0 11.287-2.71c8.316-13.967 23.564-22.643 39.792-22.643 7.686 0 15.295 1.92 22.005 5.553a8.108 8.108 0 0 0 11.599-4.71c3.184-10.197 12.508-17.046 23.201-17.046 6.806 0 13.118 2.749 17.77 7.738a8.109 8.109 0 0 0 10.682 1.038c7.931-5.742 17.304-8.776 27.104-8.776 12.261 0 23.818 4.751 32.542 13.377a8.104 8.104 0 0 0 12.057-.734c4.647-5.87 11.594-9.237 19.062-9.237a24.32 24.32 0 0 1 18.189 8.194 8.111 8.111 0 0 0 8.094 2.472 24.59 24.59 0 0 1 6.124-.777c2.761 0 5.458.476 8.012 1.368a40.675 40.675 0 0 0-1.65 11.396 8.104 8.104 0 0 0 8.106 8.106 8.105 8.105 0 0 0 8.106-8.106c0-4.045.957-7.887 2.843-11.419a24.287 24.287 0 0 1 21.459-12.882c7.767 0 14.884 3.583 19.525 9.832a8.102 8.102 0 0 0 5.913 3.25 8.095 8.095 0 0 0 6.325-2.351 14.97 14.97 0 0 1 10.65-4.413c8.302 0 15.056 6.753 15.056 15.055 0 .559-.03 1.11-.09 1.653-.026.164-.048.33-.064.496-1.046 7.288-7.33 12.907-14.903 12.907-3.283 0-6.417-1.059-9.063-3.064a8.085 8.085 0 0 0-6.594-1.465 8.099 8.099 0 0 0-5.415 4.038 24.307 24.307 0 0 1-5.757 7.007 8.107 8.107 0 0 0-1.6 10.625 46.111 46.111 0 0 1 7.426 25.13 46.036 46.036 0 0 1-5.037 20.99 8.108 8.108 0 0 0 2.194 10.042c3.645 2.882 5.736 7.183 5.736 11.8a8.106 8.106 0 0 0 8.106 8.106h1.648c.536 4.092.875 8.224.968 12.358a8.105 8.105 0 0 0 2.574 5.746c4.986 4.653 7.731 10.963 7.731 17.768.001 7.888-3.863 15.32-10.335 19.879zm45.447-71.965h-40.985a30.984 30.984 0 0 0-6.161-11.868 62.104 62.104 0 0 0 3.565-13.089 62.78 62.78 0 0 0 .763-9.767 62.278 62.278 0 0 0-6.723-28.193l.041-.048a30.97 30.97 0 0 0 11.471 2.182c13.358 0 24.789-8.422 29.258-20.234h8.77c22.336 0 40.509 18.173 40.509 40.51 0 22.335-18.171 40.507-40.508 40.507zm-84.487-53.285a8.104 8.104 0 0 0-8.106 8.106v26.084c0 4.478 3.628 8.106 8.106 8.106s8.107-3.628 8.107-8.106V158.04a8.107 8.107 0 0 0-8.107-8.107zm62.111-5.47c-3.35 0-6.066 2.716-6.066 6.068s2.717 6.067 6.066 6.067a6.066 6.066 0 0 0 6.069-6.067 6.067 6.067 0 0 0-6.069-6.068z"
        style="" fill="#1e252b" data-original="#1e252b"></path></g></svg>